<svg width="60" height="60" viewBox="0 0 60 60" fill="none" xmlns="http://www.w3.org/2000/svg">
<path d="M40 25C40 26.38 38.88 27.5 37.5 27.5C36.12 27.5 35 26.38 35 25C35 23.62 36.12 22.5 37.5 22.5C38.88 22.5 40 23.62 40 25ZM22.5 27.5C23.88 27.5 25 26.38 25 25C25 23.62 23.88 22.5 22.5 22.5C21.12 22.5 20 23.62 20 25C20 26.38 21.12 27.5 22.5 27.5ZM30 50C18.9725 50 10 41.0275 10 30C10 18.9725 18.9725 10 30 10C41.0275 10 50 18.9725 50 30C50 41.0275 41.0275 50 30 50ZM47.5 30C47.5 20.35 39.6475 12.5 30 12.5C20.3525 12.5 12.5 20.35 12.5 30C12.5 39.65 20.3525 47.5 30 47.5C39.6475 47.5 47.5 39.65 47.5 30ZM37.8675 34.115C37.8325 34.15 34.3975 37.5 30 37.5C25.6025 37.5 22.165 34.1475 22.1325 34.115C21.645 33.6325 20.85 33.6325 20.3675 34.12C19.88 34.61 19.88 35.3975 20.3675 35.885C20.535 36.0525 24.5475 40 30.0025 40C35.4575 40 39.4675 36.0525 39.6375 35.885C40.125 35.3975 40.125 34.61 39.6375 34.12C39.155 33.6325 38.36 33.6325 37.8725 34.115H37.8675ZM18.75 57.5H11.25C6.425 57.5 2.5 53.575 2.5 48.75V41.25C2.5 40.56 1.94 40 1.25 40C0.56 40 0 40.56 0 41.25V48.75C0 54.9525 5.0475 60 11.25 60H18.75C19.44 60 20 59.44 20 58.75C20 58.06 19.44 57.5 18.75 57.5ZM58.75 40C58.06 40 57.5 40.56 57.5 41.25V48.75C57.5 53.575 53.575 57.5 48.75 57.5H41.25C40.56 57.5 40 58.06 40 58.75C40 59.44 40.56 60 41.25 60H48.75C54.9525 60 60 54.9525 60 48.75V41.25C60 40.56 59.44 40 58.75 40ZM48.75 0H41.25C40.56 0 40 0.56 40 1.25C40 1.94 40.56 2.5 41.25 2.5H48.75C53.575 2.5 57.5 6.425 57.5 11.25V18.75C57.5 19.44 58.06 20 58.75 20C59.44 20 60 19.44 60 18.75V11.25C60 5.0475 54.9525 0 48.75 0ZM1.25 20C1.94 20 2.5 19.44 2.5 18.75V11.25C2.5 6.425 6.425 2.5 11.25 2.5H18.75C19.44 2.5 20 1.94 20 1.25C20 0.56 19.44 0 18.75 0H11.25C5.0475 0 0 5.0475 0 11.25V18.75C0 19.44 0.56 20 1.25 20Z" fill="white" fill-opacity="0.9"/>
</svg>
