<svg width="60" height="60" viewBox="0 0 60 60" fill="none" xmlns="http://www.w3.org/2000/svg">
<path d="M60 58.75C60 59.44 59.44 60 58.75 60H11.25C5.0475 60 0 54.9525 0 48.75V1.25C0 0.56 0.56 0 1.25 0C1.94 0 2.5 0.56 2.5 1.25V48.75C2.5 53.575 6.425 57.5 11.25 57.5H58.75C59.44 57.5 60 58.06 60 58.75ZM46.25 50C46.94 50 47.5 49.44 47.5 48.75V16.25C47.5 15.56 46.94 15 46.25 15C45.56 15 45 15.56 45 16.25V48.75C45 49.44 45.56 50 46.25 50ZM36.25 50C36.94 50 37.5 49.44 37.5 48.75V28.75C37.5 28.06 36.94 27.5 36.25 27.5C35.56 27.5 35 28.06 35 28.75V48.75C35 49.44 35.56 50 36.25 50ZM26.25 50C26.94 50 27.5 49.44 27.5 48.75V16.25C27.5 15.56 26.94 15 26.25 15C25.56 15 25 15.56 25 16.25V48.75C25 49.44 25.56 50 26.25 50ZM16.25 50C16.94 50 17.5 49.44 17.5 48.75V28.75C17.5 28.06 16.94 27.5 16.25 27.5C15.56 27.5 15 28.06 15 28.75V48.75C15 49.44 15.56 50 16.25 50Z" fill="white"/>
</svg>
