<svg width="24" height="28" viewBox="0 0 24 28" fill="none" xmlns="http://www.w3.org/2000/svg">
<path d="M22.2727 11.6364C22.2727 19.9091 11.6364 27 11.6364 27C11.6364 27 1 19.9091 1 11.6364C1 8.81542 2.12061 6.11002 4.11532 4.11532C6.11002 2.12061 8.81543 1 11.6364 1C14.4573 1 17.1627 2.12061 19.1574 4.11532C21.1521 6.11002 22.2727 8.81542 22.2727 11.6364Z" stroke="#0C5B9B" stroke-width="2" stroke-linecap="round" stroke-linejoin="round"/>
<path d="M11.6363 15.1817C13.5944 15.1817 15.1817 13.5944 15.1817 11.6363C15.1817 9.67817 13.5944 8.09082 11.6363 8.09082C9.67817 8.09082 8.09082 9.67817 8.09082 11.6363C8.09082 13.5944 9.67817 15.1817 11.6363 15.1817Z" stroke="#0C5B9B" stroke-width="2" stroke-linecap="round" stroke-linejoin="round"/>
</svg>
