<svg width="50" height="60" viewBox="0 0 50 60" fill="none" xmlns="http://www.w3.org/2000/svg">
<path d="M47.5 56.25V58.75C47.5 59.44 46.94 60 46.25 60C45.56 60 45 59.44 45 58.75V56.25C45 50.0475 39.9525 45 33.75 45H16.25C10.0475 45 5 50.0475 5 56.25V58.75C5 59.44 4.44 60 3.75 60C3.06 60 2.5 59.44 2.5 58.75V56.25C2.5 48.67 8.6675 42.5 16.25 42.5H33.75C41.3325 42.5 47.5 48.67 47.5 56.25ZM50 18.75V26.25C50 28.3175 48.3175 30 46.25 30H44.91C44.3025 34.235 40.65 37.5 36.25 37.5H13.75C9.35 37.5 5.6975 34.235 5.09 30H3.75C1.6825 30 0 28.3175 0 26.25V18.75C0 16.6825 1.6825 15 3.75 15H5V13.75C5 8.925 8.925 5 13.75 5H23.75V1.25C23.75 0.56 24.31 0 25 0C25.69 0 26.25 0.56 26.25 1.25V5H36.25C41.075 5 45 8.925 45 13.75V15H46.25C48.3175 15 50 16.6825 50 18.75ZM3.75 27.5H5V17.5H3.75C3.06 17.5 2.5 18.0625 2.5 18.75V26.25C2.5 26.9375 3.06 27.5 3.75 27.5ZM42.5 28.75V13.75C42.5 10.3025 39.695 7.5 36.25 7.5H13.75C10.305 7.5 7.5 10.3025 7.5 13.75V28.75C7.5 32.1975 10.305 35 13.75 35H36.25C39.695 35 42.5 32.1975 42.5 28.75ZM47.5 18.75C47.5 18.0625 46.94 17.5 46.25 17.5H45V27.5H46.25C46.94 27.5 47.5 26.9375 47.5 26.25V18.75ZM22.5 22.5C22.5 25.2575 20.2575 27.5 17.5 27.5C14.7425 27.5 12.5 25.2575 12.5 22.5C12.5 19.7425 14.7425 17.5 17.5 17.5C20.2575 17.5 22.5 19.7425 22.5 22.5ZM20 22.5C20 21.12 18.8775 20 17.5 20C16.1225 20 15 21.12 15 22.5C15 23.88 16.1225 25 17.5 25C18.8775 25 20 23.88 20 22.5ZM37.5 22.5C37.5 25.2575 35.2575 27.5 32.5 27.5C29.7425 27.5 27.5 25.2575 27.5 22.5C27.5 19.7425 29.7425 17.5 32.5 17.5C35.2575 17.5 37.5 19.7425 37.5 22.5ZM35 22.5C35 21.12 33.8775 20 32.5 20C31.1225 20 30 21.12 30 22.5C30 23.88 31.1225 25 32.5 25C33.8775 25 35 23.88 35 22.5Z" fill="white"/>
</svg>
