<svg width="30" height="34" viewBox="0 0 30 34" fill="none" xmlns="http://www.w3.org/2000/svg">
<path d="M13.7585 3.2229L13.7498 22.5201C13.7498 22.8516 13.8815 23.1696 14.1159 23.404C14.3503 23.6384 14.6682 23.7701 14.9998 23.7701C15.3313 23.7701 15.6492 23.6384 15.8836 23.404C16.1181 23.1696 16.2497 22.8516 16.2497 22.5201L16.2585 3.24415L19.8984 6.88535C20.1328 7.11968 20.4507 7.25132 20.7822 7.25132C21.1136 7.25132 21.4315 7.11968 21.6659 6.88535C21.9002 6.65094 22.0319 6.33306 22.0319 6.00161C22.0319 5.67016 21.9002 5.35228 21.6659 5.11787L17.6522 1.09918C17.304 0.750714 16.8905 0.47428 16.4354 0.285677C15.9802 0.0970748 15.4924 0 14.9998 0C14.5071 0 14.0193 0.0970748 13.5642 0.285677C13.109 0.47428 12.6955 0.750714 12.3473 1.09918L8.33361 5.11412C8.09928 5.34853 7.96764 5.66641 7.96764 5.99786C7.96764 6.32931 8.09928 6.64719 8.33361 6.8816C8.56802 7.11593 8.8859 7.24757 9.21735 7.24757C9.5488 7.24757 9.86668 7.11593 10.1011 6.8816L13.7585 3.2229Z" fill="black"/>
<path d="M27.4996 25.02V30.0199C27.4996 30.3514 27.3679 30.6694 27.1335 30.9038C26.8991 31.1382 26.5811 31.2699 26.2496 31.2699H3.74994C3.41843 31.2699 3.10049 31.1382 2.86607 30.9038C2.63166 30.6694 2.49996 30.3514 2.49996 30.0199V25.02C2.49996 24.6885 2.36827 24.3705 2.13385 24.1361C1.89943 23.9017 1.5815 23.77 1.24998 23.77C0.918466 23.77 0.600528 23.9017 0.366111 24.1361C0.131694 24.3705 0 24.6885 0 25.02L0 30.0199C0 31.0145 0.395082 31.9683 1.09833 32.6715C1.80158 33.3748 2.7554 33.7699 3.74994 33.7699H26.2496C27.2442 33.7699 28.198 33.3748 28.9012 32.6715C29.6045 31.9683 29.9995 31.0145 29.9995 30.0199V25.02C29.9995 24.6885 29.8679 24.3705 29.6334 24.1361C29.399 23.9017 29.0811 23.77 28.7496 23.77C28.4181 23.77 28.1001 23.9017 27.8657 24.1361C27.6313 24.3705 27.4996 24.6885 27.4996 25.02Z" fill="black"/>
</svg>
